<svg id="레이어_1" data-name="레이어 1" xmlns="http://www.w3.org/2000/svg" viewBox="0 0 30.86 31.28"><defs><style>.cls-1,.cls-2{fill:none;stroke:#fff;stroke-linecap:round;stroke-linejoin:round;}.cls-1{stroke-width:1.2px;}.cls-2{stroke-width:1.36px;}</style></defs><title>main_icon_02_sj</title><path class="cls-1" d="M307,427.26c-1.7,4.52-5,7.59-8.84,7.59-5.55,0-10.06-6.49-10.06-14.5s4.51-14.5,10.06-14.5" transform="translate(-282.75 -404.5)"/><line class="cls-1" x1="0.65" y1="16.21" x2="17.66" y2="16.21"/><line class="cls-1" x1="15.43" y1="1.02" x2="15.43" y2="30.48"/><path class="cls-1" d="M298.07,413.57c-4.51,0-8.49-1.22-10.93-3.09a14.76,14.76,0,0,0,.22,20c2.45-1.78,6.33-2.93,10.71-2.93s8.4,1.19,10.85,3A14.77,14.77,0,0,0,313,420.35c0-.28,0-.55,0-.83" transform="translate(-282.75 -404.5)"/><path class="cls-1" d="M301,405.78a15,15,0,0,0-2.78-.26,14.75,14.75,0,0,0-11,5c2.44,1.87,6.42,3.09,10.93,3.09" transform="translate(-282.75 -404.5)"/><path class="cls-1" d="M298.18,435.18a14.82,14.82,0,0,0,10.74-4.61c-2.45-1.84-6.39-3-10.85-3s-8.26,1.15-10.71,2.93A14.79,14.79,0,0,0,298.18,435.18Z" transform="translate(-282.75 -404.5)"/><path class="cls-2" d="M312.91,411.67c0,3.59-2.91,13.7-6.49,13.7s-6.49-10.11-6.49-13.7a6.49,6.49,0,0,1,13,0Z" transform="translate(-282.75 -404.5)"/><circle class="cls-2" cx="23.67" cy="6.86" r="3.82"/></svg>