<svg id="레이어_1" data-name="레이어 1" xmlns="http://www.w3.org/2000/svg" viewBox="0 0 31.2 31.2"><defs><style>.cls-1,.cls-2{fill:none;stroke:#fff;stroke-linecap:round;stroke-linejoin:round;}.cls-1{stroke-width:1.2px;}.cls-2{stroke-width:1.18px;}</style></defs><title>main_icon_01_sj</title><path class="cls-1" d="M312.67,420.18a15,15,0,1,1-15-15A15,15,0,0,1,312.67,420.18Z" transform="translate(-282.07 -404.58)"/><path class="cls-1" d="M309.35,420.34a11.68,11.68,0,1,1-11.68-11.68A11.68,11.68,0,0,1,309.35,420.34Z" transform="translate(-282.07 -404.58)"/><line class="cls-2" x1="15.6" y1="4.08" x2="15.6" y2="6.57"/><line class="cls-2" x1="15.6" y1="27.45" x2="15.6" y2="25.46"/><line class="cls-2" x1="3.92" y1="15.76" x2="6.15" y2="15.76"/><line class="cls-2" x1="24.72" y1="15.8" x2="27.16" y2="15.8"/><line class="cls-2" x1="7.43" y1="7.44" x2="9.36" y2="9.36"/><line class="cls-2" x1="23.91" y1="7.44" x2="22.39" y2="8.96"/><line class="cls-2" x1="7.43" y1="24.11" x2="9.26" y2="22.29"/><line class="cls-2" x1="24.06" y1="23.91" x2="22.24" y2="22.09"/><line class="cls-2" x1="15.6" y1="14.18" x2="15.6" y2="9.42"/><line class="cls-2" x1="9.42" y1="15.76" x2="13.98" y2="15.76"/><path class="cls-2" d="M299.29,420.38a1.62,1.62,0,1,1-1.62-1.62A1.62,1.62,0,0,1,299.29,420.38Z" transform="translate(-282.07 -404.58)"/></svg>