<svg id="레이어_1" data-name="레이어 1" xmlns="http://www.w3.org/2000/svg" viewBox="0 0 30.63 31.35"><defs><style>.cls-1,.cls-2,.cls-3{fill:none;stroke:#fff;stroke-linecap:round;stroke-linejoin:round;}.cls-1{stroke-width:1.34px;}.cls-2{stroke-width:0.86px;}.cls-3{stroke-width:1.36px;}</style></defs><title>main_icon_03_sj</title><path class="cls-1" d="M301.51,415.2v-7.51a2.53,2.53,0,0,0-2.51-2.51H285.56a2.53,2.53,0,0,0-2.51,2.51v24.67a2.54,2.54,0,0,0,.74,1.78,2.49,2.49,0,0,0,1.77.73H299a2.49,2.49,0,0,0,2.29-1.49" transform="translate(-282.38 -404.51)"/><polyline class="cls-1" points="6.21 25.06 3.6 25.06 3.6 6.43 16.19 6.43 16.19 10.33"/><line class="cls-2" x1="6.76" y1="3.36" x2="13.03" y2="3.36"/><line class="cls-1" x1="7.78" y1="27.88" x2="12.01" y2="27.88"/><path class="cls-3" d="M298.79,416.93a1.35,1.35,0,0,0,0,1.9,1.33,1.33,0,0,0-1.9,0,1.34,1.34,0,0,1-1.9,1.9,1.35,1.35,0,0,0,0,1.9l-3.51-3.51a1.35,1.35,0,1,0-1.9,1.91l6.36,6.35a1,1,0,0,0,.3.2,2.48,2.48,0,0,0,.29.37l-4.48-.22a1.34,1.34,0,1,0-.14,2.68l9,.45a1.18,1.18,0,0,0,.45-.07l1.56,1.57,6.62-6.61-2.47-2.47-.76-.76-5.6-5.59A1.33,1.33,0,0,0,298.79,416.93Z" transform="translate(-282.38 -404.51)"/><rect class="cls-3" x="302.94" y="428.47" width="9.35" height="3.99" transform="translate(-496.66 -60.97) rotate(-44.99)"/></svg>